<?xml version="1.0" encoding="utf-8"?>
<svg xmlns="http://www.w3.org/2000/svg" width="188" height="60" viewBox="0 0 188 60">
  <g fill="none" fill-rule="evenodd">
    <polygon fill="#FFF" points="188 31.5 188 60 0 60 0 0 172.208 0 167.696 6 6.016 6 6.016 54 181.984 54 181.984 37.5"/>
    <polygon fill="#F8DC00" points="178.224 0 188 0 188 25.5 181.984 31.5 181.984 6 173.712 6"/>
    <path fill="#FFF" d="M22.2205042,33.4138015 C23.2807759,34.1065042 24.331614,34.650819 25.3720077,35.0467461 C26.4124014,35.4423336 27.3844014,35.6402972 28.2876706,35.6402972 C29.1515209,35.6402972 29.8088422,35.5170369 30.2609822,35.2688184 C30.7127853,35.0212791 30.9385184,34.650819 30.9385184,34.1560799 C30.9385184,33.8983538 30.8401392,33.6956364 30.6440546,33.5475882 C30.4472962,33.3988609 30.1871978,33.2756006 29.8634224,33.1757699 C29.5399839,33.0769579 29.1616283,32.99818 28.7297032,32.9387569 C28.2974412,32.880013 27.8557455,32.7995373 27.4042793,32.7014044 C26.9723542,32.6222869 26.4663078,32.5289079 25.8874877,32.4195695 C25.3079938,32.3112499 24.7136756,32.1516566 24.1055439,31.9445249 C23.4967384,31.7363746 22.8929866,31.4738946 22.2942886,31.1574246 C21.6952536,30.8409546 21.1605694,30.4355198 20.6892252,29.9407807 C20.2182179,29.4457021 19.8398623,28.8569048 19.555506,28.174389 C19.2701389,27.4918732 19.1279608,26.6857575 19.1279608,25.7553628 C19.1279608,24.3899916 19.392776,23.2619729 19.9237542,22.3709672 C20.4537216,21.4809801 21.1255302,20.7733368 21.9408647,20.2487165 C22.7555253,19.7251148 23.6635114,19.3580503 24.6651599,19.1505791 C25.6668084,18.9427683 26.6384714,18.8392024 27.5808228,18.8392024 C29.230359,18.8392024 30.7070577,19.0819879 32.0132774,19.5665402 C33.3188233,20.051432 34.5707997,20.7583962 35.7685327,21.6884513 C35.9255352,21.8273314 36.0138069,21.9954137 36.0336849,22.1933772 C36.052889,22.3913408 36.0043733,22.5696098 35.8867899,22.7271657 L33.5893661,26.0225966 C33.4711089,26.180492 33.3144434,26.2799832 33.117685,26.3190326 C32.9216004,26.3594402 32.7443831,26.3190326 32.5877176,26.2005261 C31.586406,25.5672465 30.6538251,25.1169898 29.7899749,24.849756 C28.9254509,24.5828617 28.1303313,24.449075 27.4042793,24.449075 C27.1879799,24.449075 26.9373151,24.454508 26.6532957,24.4640157 C26.3682655,24.4742025 26.0983966,24.5132519 25.8433519,24.5828617 C25.5879702,24.652132 25.3763876,24.7662242 25.2099515,24.9241196 C25.0428417,25.0826942 24.9599606,25.3000127 24.9599606,25.5774333 C24.9599606,25.8545143 25.1658157,26.1020537 25.5785366,26.3190326 C25.9905837,26.5370302 26.4619279,26.725486 26.9918953,26.883721 C27.5218627,27.0416165 28.032289,27.1655559 28.5235112,27.2538416 C29.0140595,27.3431459 29.3280644,27.397815 29.4661995,27.4175095 C30.1730473,27.5563896 30.947952,27.7587674 31.792935,28.0263408 C32.6365703,28.2932351 33.4276469,28.6888226 34.1634694,29.2131034 C34.8996288,29.7377238 35.5182048,30.4209187 36.0188606,31.2609904 C36.5195164,32.1030995 36.7698443,33.1570941 36.7698443,34.4229742 C36.7698443,35.6093972 36.5636523,36.6335105 36.1512682,37.4953141 C35.7392211,38.356099 35.1647809,39.0637422 34.4282846,39.6172252 C33.6921252,40.1713873 32.8090708,40.582255 31.7777738,40.8491493 C30.7471506,41.1163831 29.6029871,41.2498302 28.3469677,41.2498302 C27.3254412,41.2498302 26.3733192,41.1659589 25.489591,40.9978766 C24.6065366,40.8297944 23.7817686,40.5971957 23.0156237,40.2994015 C22.2501527,40.0036446 21.5382512,39.6515208 20.880593,39.2464256 C20.2225978,38.8413304 19.618846,38.410089 19.0693376,37.955418 C18.9119982,37.8358929 18.8237265,37.6725644 18.8041854,37.4654328 C18.7846443,37.2569429 18.833497,37.0742595 18.9514173,36.9163641 L21.2191926,33.6209332 C21.3371129,33.4633773 21.4941153,33.3642258 21.6905368,33.3241577 C21.8869582,33.2851083 22.0631648,33.3149895 22.2205042,33.4138015 Z M154.65066,33.4138015 C155.710595,34.1065042 156.76177,34.650819 157.8025,35.0467461 C158.842894,35.4423336 159.81422,35.6402972 160.7185,35.6402972 C161.581677,35.6402972 162.238998,35.5170369 162.691138,35.2688184 C163.142604,35.0212791 163.368337,34.650819 163.368337,34.1560799 C163.368337,33.8983538 163.270295,33.6956364 163.07421,33.5475882 C162.877452,33.3988609 162.617353,33.2756006 162.293915,33.1757699 C161.97014,33.0769579 161.591784,32.99818 161.159859,32.9387569 C160.727597,32.880013 160.286238,32.7995373 159.834772,32.7014044 C159.40251,32.6222869 158.896464,32.5289079 158.317307,32.4195695 C157.738823,32.3112499 157.143831,32.1516566 156.536037,31.9445249 C155.926557,31.7363746 155.323142,31.4738946 154.724444,31.1574246 C154.125409,30.8409546 153.590725,30.4355198 153.119381,29.9407807 C152.648374,29.4457021 152.270018,28.8569048 151.985662,28.174389 C151.700632,27.4918732 151.558453,26.6857575 151.558453,25.7553628 C151.558453,24.3899916 151.823606,23.2619729 152.354247,22.3709672 C152.883877,21.4809801 153.555686,20.7733368 154.37102,20.2487165 C155.185681,19.7251148 156.094341,19.3580503 157.095316,19.1505791 C158.096964,18.9427683 159.068627,18.8392024 160.010979,18.8392024 C161.660852,18.8392024 163.137887,19.0819879 164.443433,19.5665402 C165.748979,20.051432 167.001292,20.7583962 168.199025,21.6884513 C168.355691,21.8273314 168.4443,21.9954137 168.463504,22.1933772 C168.483382,22.3913408 168.433855,22.5696098 168.316946,22.7271657 L166.019522,26.0225966 C165.901938,26.180492 165.744599,26.2799832 165.547841,26.3190326 C165.351756,26.3594402 165.174539,26.3190326 165.017873,26.2005261 C164.016562,25.5672465 163.083981,25.1169898 162.220131,24.849756 C161.35527,24.5828617 160.561161,24.449075 159.834772,24.449075 C159.618136,24.449075 159.368145,24.454508 159.083788,24.4640157 C158.798421,24.4742025 158.528552,24.5132519 158.273844,24.5828617 C158.018463,24.652132 157.806543,24.7662242 157.640781,24.9241196 C157.472997,25.0826942 157.390116,25.3000127 157.390116,25.5774333 C157.390116,25.8545143 157.595971,26.1020537 158.008018,26.3190326 C158.420403,26.5370302 158.891747,26.725486 159.422051,26.883721 C159.952355,27.0416165 160.462445,27.1655559 160.954004,27.2538416 C161.444889,27.3431459 161.758894,27.397815 161.896355,27.4175095 C162.603203,27.5563896 163.378782,27.7587674 164.223091,28.0263408 C165.066726,28.2932351 165.857129,28.6888226 166.593288,29.2131034 C167.329784,29.7377238 167.948361,30.4209187 168.449016,31.2609904 C168.949672,32.1030995 169.2,33.1570941 169.2,34.4229742 C169.2,35.6093972 168.993808,36.6335105 168.581424,37.4953141 C168.169377,38.356099 167.594937,39.0637422 166.85844,39.6172252 C166.122281,40.1713873 165.239227,40.582255 164.207929,40.8491493 C163.177643,41.1163831 162.033143,41.2498302 160.777123,41.2498302 C159.755597,41.2498302 158.803475,41.1659589 157.920421,40.9978766 C157.036692,40.8297944 156.212261,40.5971957 155.446116,40.2994015 C154.680308,40.0036446 153.968407,39.6515208 153.310749,39.2464256 C152.652754,38.8413304 152.048665,38.410089 151.499156,37.955418 C151.342154,37.8358929 151.253882,37.6725644 151.234004,37.4654328 C151.215137,37.2569429 151.264327,37.0742595 151.381573,36.9163641 L153.649011,33.6209332 C153.767605,33.4633773 153.924271,33.3642258 154.121029,33.3241577 C154.317114,33.2851083 154.493994,33.3149895 154.65066,33.4138015 Z M49.835243,24.5978363 L47.0536722,24.5978363 C46.8555662,24.5978363 46.6877825,24.6664275 46.5496473,24.8042889 C46.411849,24.9421503 46.3431183,25.1088743 46.3431183,25.3058192 L46.3431183,28.7869894 C46.3431183,28.9839343 46.411849,29.1509979 46.5496473,29.2888593 C46.6877825,29.4263811 46.8555662,29.4956514 47.0536722,29.4956514 L50.22,29.4956514 C50.969636,29.4956514 51.517123,29.2545637 51.862124,28.7730675 C52.207462,28.2912317 52.3806363,27.745219 52.3806363,27.1350295 C52.3806363,26.8205968 52.3260561,26.5105784 52.2175694,26.2056534 C52.1090828,25.9003889 51.9466897,25.6307782 51.7290426,25.3944443 C51.5120693,25.1581105 51.2459064,24.9665986 50.9302169,24.81889 C50.6145275,24.6715209 50.2493116,24.5978363 49.835243,24.5978363 Z M49.6202912,35.0168988 L47.0513138,35.0168988 C46.8542185,35.0168988 46.6871086,35.0858295 46.5496473,35.2240304 C46.4111752,35.3629105 46.3431183,35.5309928 46.3431183,35.7289563 L46.3431183,40.1520663 C46.3431183,40.3500299 46.2743877,40.5181121 46.1372632,40.6559735 C46.0008126,40.7951932 45.8350504,40.8641239 45.6396397,40.8641239 L41.2145972,40.8641239 C41.0188496,40.8641239 40.8530874,40.7951932 40.7162999,40.6559735 C40.5791754,40.5181121 40.5111186,40.3500299 40.5111186,40.1520663 L40.5111186,19.848409 C40.5111186,19.6504455 40.5798493,19.4827028 40.7176475,19.3431436 C40.854435,19.2052822 41.0215449,19.1360119 41.2183033,19.1360119 L50.2307813,19.1360119 C51.3297982,19.1360119 52.366149,19.3431436 53.337812,19.7591047 C54.309475,20.1747263 55.1534473,20.749262 55.8700656,21.4810141 C56.5870209,22.2131057 57.1564073,23.0643829 57.578225,24.0334874 C58.0007165,25.0032711 58.2119622,26.042325 58.2119622,27.1506492 C58.2119622,28.2586339 58.0347449,29.2922549 57.6803103,30.2518517 C57.3258756,31.2124673 56.7898437,32.0433709 56.0715408,32.7452416 C55.352901,33.4481311 54.4573808,34.0026327 53.3846432,34.4080675 C52.3115687,34.8131627 51.0572339,35.0168988 49.6202912,35.0168988 Z M66.2808994,29.999966 C66.2808994,30.7520917 66.4180238,31.4644888 66.6932834,32.1368178 C66.9678692,32.809826 67.3458879,33.403377 67.8273395,33.9178106 C68.3081173,34.4332629 68.87245,34.8441306 69.5206746,35.1500743 C70.1682254,35.4573762 70.855869,35.6094991 71.5822579,35.6094991 C72.3086468,35.6094991 72.9959535,35.4573762 73.6438412,35.1500743 C74.2917288,34.8441306 74.8611153,34.4332629 75.3523375,33.9178106 C75.8425489,33.403377 76.2256213,32.809826 76.5012178,32.1368178 C76.7754667,31.4644888 76.913265,30.7520917 76.913265,29.999966 C76.913265,29.268214 76.7754667,28.5602312 76.5012178,27.8777153 C76.2256213,27.19486 75.8425489,26.6009693 75.3523375,26.096383 C74.8611153,25.5921362 74.2917288,25.1863619 73.6438412,24.87906 C72.9959535,24.5731163 72.3086468,24.4196352 71.5822579,24.4196352 C70.855869,24.4196352 70.1682254,24.5731163 69.5206746,24.87906 C68.87245,25.1863619 68.3081173,25.5921362 67.8273395,26.096383 C67.3458879,26.6009693 66.9678692,27.19486 66.6932834,27.8777153 C66.4180238,28.5602312 66.2808994,29.268214 66.2808994,29.999966 Z M60.4492365,29.999966 C60.4492365,28.4563258 60.7437003,27.0019898 61.3329647,25.6362791 C61.9222292,24.2709078 62.7173487,23.0787123 63.7189972,22.0596924 C64.719635,21.040333 65.8978269,20.2338777 67.2532362,19.6406662 C68.6076348,19.0467755 70.050642,18.75 71.5822579,18.75 C73.1135369,18.75 74.556881,19.0467755 75.9116165,19.6406662 C77.2663519,20.2338777 78.4492607,21.040333 79.4603428,22.0596924 C80.4717619,23.0787123 81.2719351,24.2709078 81.8608627,25.6362791 C82.4497902,27.0019898 82.7445909,28.4563258 82.7445909,29.999966 C82.7445909,31.5439459 82.4497902,32.9982818 81.8608627,34.3633135 C81.2719351,35.7290242 80.4717619,36.9212198 79.4603428,37.9405792 C78.4492607,38.9599387 77.2663519,39.7657148 75.9116165,40.3592659 C74.556881,40.9531566 73.1135369,41.2499321 71.5822579,41.2499321 C70.050642,41.2499321 68.6076348,40.9531566 67.2532362,40.3592659 C65.8978269,39.7657148 64.719635,38.9599387 63.7189972,37.9405792 C62.7173487,36.9212198 61.9222292,35.7290242 61.3329647,34.3633135 C60.7437003,32.9982818 60.4492365,31.5439459 60.4492365,29.999966 Z M92.2686698,29.168655 L95.3750267,29.168655 C95.6091826,29.168655 95.8541199,29.1245122 96.1081538,29.0352079 C96.361177,28.9465827 96.5963438,28.8080421 96.8112956,28.6199258 C97.0259105,28.4318095 97.2017801,28.1995504 97.3385677,27.9224694 C97.476029,27.6453883 97.5444228,27.3187315 97.5444228,26.9421593 C97.5444228,26.7452145 97.5090467,26.5119367 97.4416637,26.2450424 C97.3732699,25.9781482 97.2556865,25.7214407 97.0899243,25.4728827 C96.9238252,25.2260225 96.6994398,25.0182117 96.4160942,24.8497899 C96.1324117,24.6820472 95.786063,24.5978363 95.3750267,24.5978363 L92.2686698,24.5978363 C92.073259,24.5978363 91.9074968,24.6671066 91.7703724,24.8053076 C91.6335849,24.9441876 91.5658649,25.1126095 91.5658649,25.3102334 L91.5658649,28.4562579 C91.5658649,28.6542214 91.6335849,28.8226432 91.7703724,28.9611838 C91.9074968,29.0997243 92.073259,29.168655 92.2686698,29.168655 Z M90.8553111,40.8641239 L86.444419,40.8641239 C86.2469868,40.8641239 86.0792031,40.7951932 85.9410679,40.6559735 C85.8029328,40.5181121 85.7338652,40.3500299 85.7338652,40.1520663 L85.7338652,19.848409 C85.7338652,19.6504455 85.8029328,19.4827028 85.9400572,19.3431436 C86.0771816,19.2052822 86.2442915,19.1360119 86.4410499,19.1360119 L95.6000859,19.1360119 C96.7385219,19.1360119 97.78936,19.3285425 98.7519263,19.7149619 C99.7141558,20.1003627 100.533196,20.6402632 101.211069,21.3326263 C101.888943,22.0253289 102.418573,22.8460457 102.801645,23.7964745 C103.184381,24.7458845 103.376086,25.7947857 103.376086,26.9421593 C103.376086,27.5764576 103.302301,28.2039647 103.155069,28.8270575 C103.007501,29.4508294 102.796255,30.0396267 102.521332,30.5937888 C102.246072,31.1479509 101.922971,31.6477834 101.549332,32.091928 C101.17603,32.5374308 100.754886,32.9089096 100.283205,33.2056851 C100.125866,33.3241916 100.023444,33.4688442 99.9739173,33.6359078 C99.9247277,33.8039901 99.9594299,33.9673185 100.076676,34.1262326 C100.450315,34.6209717 100.842484,35.1350657 101.255205,35.6695333 C101.667252,36.2043405 102.079636,36.7428828 102.492357,37.2868581 C102.904741,37.8315125 103.307018,38.3561329 103.699187,38.8600401 C104.09203,39.364966 104.455225,39.8355963 104.789444,40.2705728 C104.907365,40.4291474 104.936339,40.5673484 104.877716,40.6861944 C104.819093,40.8047009 104.690728,40.8641239 104.495317,40.8641239 L98.8698466,40.8641239 C98.6730882,40.8641239 98.4618425,40.8091152 98.2361094,40.701135 C98.0103763,40.5917967 97.8392234,40.4583496 97.7216401,40.2994354 C97.0956519,39.4685318 96.4750543,38.6284601 95.8591736,37.7771829 C95.2436298,36.9269244 94.6331397,36.0658 94.0277033,35.1948283 C93.9104569,35.0362537 93.7440208,34.9028066 93.5287321,34.7934682 C93.3144541,34.6851485 93.1089359,34.6301398 92.9138621,34.6301398 L92.2693436,34.6301398 C92.073259,34.6301398 91.9074968,34.7000892 91.7703724,34.8382902 C91.6335849,34.9771702 91.5658649,35.1455921 91.5658649,35.3425369 L91.5658649,40.1520663 C91.5658649,40.3500299 91.4961235,40.5181121 91.3579883,40.6559735 C91.2198532,40.7951932 91.0520695,40.8641239 90.8553111,40.8641239 Z M127.464711,35.1053202 C126.894988,36.0329985 126.266305,36.8754471 125.579335,37.6333453 C124.891691,38.3905643 124.12184,39.035389 123.267761,39.5678192 C122.413007,40.0988912 121.465939,40.5114568 120.424871,40.8065345 C119.384141,41.1012727 118.234923,41.25 116.979578,41.25 C115.408206,41.25 113.93555,40.9532245 112.561611,40.3593338 C111.186997,39.7657828 109.984547,38.9644209 108.953587,37.9555878 C107.922964,36.9453965 107.11302,35.7589734 106.524093,34.3929231 C105.935165,33.0275519 105.640364,31.5728764 105.640364,30.0295757 C105.640364,28.486275 105.935165,27.031939 106.524093,25.6662283 C107.11302,24.3005175 107.922964,23.1134153 108.953587,22.1042427 C109.984547,21.09507 111.186997,20.2937082 112.561611,19.7001571 C113.93555,19.1062665 115.408206,18.8094909 116.979578,18.8094909 C118.275353,18.8094909 119.443101,18.9578787 120.484168,19.2546542 C121.524562,19.5514298 122.467587,19.9670514 123.311896,20.5011794 C124.155532,21.035647 124.916286,21.6838673 125.594496,22.4455006 C126.271695,23.2078131 126.894988,24.04381 127.464711,24.9538311 C127.56208,25.1124057 127.581958,25.2801484 127.522661,25.4584175 C127.464711,25.636347 127.346117,25.7650402 127.169911,25.8444973 L122.988121,27.5066441 C122.791363,27.585422 122.594604,27.585422 122.39852,27.5066441 C122.201761,27.4278661 122.054866,27.3090201 121.956824,27.1504455 C121.387101,26.2404244 120.700131,25.5429679 119.895241,25.057397 C119.090014,24.5728447 118.118014,24.3303988 116.979578,24.3303988 C116.232637,24.3303988 115.531854,24.4893129 114.873185,24.8068016 C114.21519,25.1236112 113.641423,25.5456844 113.151212,26.0713235 C112.659653,26.5976416 112.27658,27.2074916 112.001995,27.901892 C111.726398,28.596632 111.589611,29.3107269 111.589611,30.0445163 C111.589611,30.7986793 111.726398,31.5178677 112.001995,32.2020813 C112.27658,32.8862949 112.659653,33.4873163 113.151212,34.0027685 C113.641423,34.5188999 114.21519,34.9355402 114.873185,35.2530289 C115.531854,35.570178 116.232637,35.7290922 116.979578,35.7290922 C118.058717,35.7290922 119.03577,35.4666122 119.909728,34.9423314 C120.783686,34.4183901 121.475372,33.739949 121.985799,32.9087059 C122.084515,32.7508104 122.226693,32.6316248 122.413007,32.5528469 C122.599995,32.4737294 122.791363,32.4737294 122.988121,32.5528469 L127.169911,34.2146541 C127.346117,34.2941111 127.464711,34.4183901 127.522661,34.5854537 C127.581958,34.7545546 127.56208,34.9280698 127.464711,35.1053202 Z M142.561744,40.3293507 L136.847328,33.888914 C136.71054,33.7299999 136.597337,33.6705769 136.509739,33.710645 C136.420793,33.7496944 136.376994,33.8695591 136.376994,34.066504 L136.376994,40.1521003 C136.376994,40.3500638 136.307927,40.5181461 136.170128,40.6560075 C136.032667,40.7952271 135.865557,40.8641578 135.670146,40.8641578 L131.252179,40.8641578 C131.035543,40.8641578 130.863716,40.7952271 130.736699,40.6560075 C130.608335,40.5181461 130.545331,40.3500638 130.545331,40.1521003 L130.545331,19.848443 C130.545331,19.6504795 130.608335,19.4823972 130.736699,19.3431776 C130.863716,19.2053162 131.035543,19.1360459 131.252179,19.1360459 L135.670146,19.1360459 C135.865557,19.1360459 136.032667,19.2053162 136.170128,19.3431776 C136.307927,19.4823972 136.376994,19.6504795 136.376994,19.848443 L136.376994,26.675299 C136.376994,26.8732626 136.41574,26.9870152 136.494578,27.0168965 C136.572405,27.0464382 136.671121,26.9822614 136.788704,26.8240264 L142.090063,19.7292574 C142.207646,19.5710224 142.374756,19.4379148 142.591393,19.3282369 C142.807355,19.2202568 143.022981,19.1655876 143.238943,19.1655876 L149.070269,19.1655876 C149.286232,19.1655876 149.41864,19.2202568 149.467829,19.3282369 C149.517356,19.4379148 149.48299,19.5710224 149.36507,19.7292574 L141.443186,29.7326983 C141.323918,29.8912729 141.270686,30.0742958 141.280456,30.2814274 C141.28989,30.4895778 141.364011,30.6634325 141.501136,30.801294 C142.168901,31.5337251 142.886193,32.3113178 143.650654,33.1320346 C144.416798,33.9534305 145.187997,34.7843341 145.963239,35.6244058 C146.738817,36.4665148 147.499571,37.2926646 148.245838,38.1038737 C148.992105,38.9150828 149.688845,39.6573612 150.336396,40.3293507 C150.473857,40.4882648 150.52271,40.6169581 150.483965,40.7161096 C150.444209,40.8149216 150.317529,40.8641578 150.101566,40.8641578 L143.739599,40.8641578 C143.5233,40.8641578 143.30262,40.8149216 143.076887,40.7161096 C142.851154,40.6169581 142.679664,40.4882648 142.561744,40.3293507 Z"/>
  </g>
</svg>
