<svg width="25" height="25" viewBox="0 0 25 25" fill="none" xmlns="http://www.w3.org/2000/svg">
    <path fill-rule="evenodd" clip-rule="evenodd" d="M4.95309 7.22912L4.16722 20.4823C4.15593 20.6727 4.30771 20.8333 4.49896 20.8333H20.066C20.258 20.8333 20.41 20.6716 20.3977 20.4806L19.5427 7.2274C19.5315 7.05297 19.3863 6.91721 19.2111 6.91721H5.28483C5.10892 6.91721 4.96347 7.05397 4.95309 7.22912V7.22912Z" stroke="#666666"/>
    <path fill-rule="evenodd" clip-rule="evenodd" d="M10.0615 9.7807C10.0615 10.2894 9.64912 10.7018 9.14041 10.7018C8.63171 10.7018 8.21936 10.2894 8.21936 9.7807C8.21936 9.272 8.63171 8.85965 9.14041 8.85965C9.64912 8.85965 10.0615 9.272 10.0615 9.7807Z" fill="#666666"/>
    <path fill-rule="evenodd" clip-rule="evenodd" d="M16.2324 9.7807C16.2324 10.2894 15.82 10.7018 15.3113 10.7018C14.8026 10.7018 14.3903 10.2894 14.3903 9.7807C14.3903 9.272 14.8026 8.85965 15.3113 8.85965C15.82 8.85965 16.2324 9.272 16.2324 9.7807Z" fill="#666666"/>
    <path d="M9.17655 9.78071V7.34694C9.17655 7.34694 9.12921 3.33334 12.2731 3.33334C15.4171 3.33334 15.3508 7.34694 15.3508 7.34694V9.78071" stroke="#666666"/>
</svg>
