<svg xmlns="http://www.w3.org/2000/svg" width="67.008" height="67.008" viewBox="0 0 67.008 67.008">
  <g id="Group_5" data-name="Group 5" transform="translate(-566.422 -546.652)">
    <circle id="Ellipse_5" data-name="Ellipse 5" cx="32.004" cy="32.004" r="32.004" transform="translate(567.922 548.152)" fill="none" stroke="#fff" stroke-miterlimit="10" stroke-width="3"/>
    <g id="Group_3" data-name="Group 3">
      <path id="Path_9" data-name="Path 9" d="M582.532,568.057H598.11v2.285H585.232v8.653h9.658v2.285h-9.658v8.689H598.11v2.285H582.532Z" fill="#fff"/>
      <path id="Path_10" data-name="Path 10" d="M604.756,592.427a12.857,12.857,0,0,1-3.185-.935v-2.561a17.3,17.3,0,0,0,6.992,1.418,8.267,8.267,0,0,0,4.586-1,3.4,3.4,0,0,0,1.472-3.011,3.754,3.754,0,0,0-.606-2.251,4.722,4.722,0,0,0-1.748-1.4q-1.143-.573-3.947-1.714a13.984,13.984,0,0,1-4.967-3.029,5.857,5.857,0,0,1-1.54-4.172,5.558,5.558,0,0,1,.986-3.253,6.379,6.379,0,0,1,2.788-2.2,10.352,10.352,0,0,1,4.153-.779,18.447,18.447,0,0,1,3.444.294,13.937,13.937,0,0,1,3.028.951v2.458a14.947,14.947,0,0,0-6.092-1.281,7.239,7.239,0,0,0-4.188,1.005,3.237,3.237,0,0,0-1.419,2.8,3.6,3.6,0,0,0,.589,2.078,5.5,5.5,0,0,0,1.851,1.592,26.438,26.438,0,0,0,3.479,1.593,26.826,26.826,0,0,1,3.911,1.817,6.237,6.237,0,0,1,2.2,2.146,6.412,6.412,0,0,1,.779,3.341,5.653,5.653,0,0,1-2.181,4.759q-2.183,1.68-6.439,1.679A22.553,22.553,0,0,1,604.756,592.427Z" fill="#fff"/>
    </g>
  </g>
</svg>
