<svg xmlns="http://www.w3.org/2000/svg" width="512" height="455.516" viewBox="0 0 512 455.516">
  <path id="heart" d="M471.383,44.578C444.879,15.832,408.512,0,368.973,0c-29.555,0-56.621,9.344-80.449,27.77A164.591,164.591,0,0,0,256,61.73,164.5,164.5,0,0,0,223.473,27.77C199.648,9.344,172.582,0,143.027,0,103.488,0,67.117,15.832,40.613,44.578,14.426,72.988,0,111.8,0,153.871c0,43.3,16.137,82.938,50.781,124.742,30.992,37.395,75.535,75.355,127.117,119.313,17.613,15.012,37.578,32.027,58.309,50.152a30.057,30.057,0,0,0,39.578.008c20.73-18.129,40.707-35.152,58.328-50.172,51.574-43.949,96.117-81.906,127.109-119.3C495.867,236.809,512,197.172,512,153.867,512,111.8,497.574,72.988,471.383,44.578Zm0,0" fill="#fff"/>
</svg>
