<svg xmlns="http://www.w3.org/2000/svg" width="80.922" height="56.645" viewBox="0 0 80.922 56.645">
  <g id="Group_2" data-name="Group 2" transform="translate(-4007.892 -2476.653)">
    <path id="Path_2" data-name="Path 2" d="M4088.814,2494.41a17.757,17.757,0,0,0-17.757-17.757h-45.408a17.757,17.757,0,0,0-17.757,17.757v21.131a17.757,17.757,0,0,0,17.757,17.757h45.408a17.757,17.757,0,0,0,17.757-17.757Zm-26.7,12.149-20.362,10.074c-.8.432-3.51-.146-3.51-1.054V2494.9c0-.92,2.734-1.5,3.533-1.042l19.491,10.605C4062.08,2504.929,4062.937,2506.112,4062.11,2506.559Z" fill="#fff"/>
  </g>
</svg>
