<svg xmlns="http://www.w3.org/2000/svg" width="20" height="20" viewBox="0 0 20 20"><path fill="#FFF" d="M15.388 14.11c2.554-3.181 2.3-7.85-.6-10.745A7.986 7.986 0 0 0 9.093 1c-2.161 0-4.199.84-5.725 2.365A7.98 7.98 0 0 0 1 9.08a7.98 7.98 0 0 0 2.368 5.717c1.554 1.522 3.571 2.365 5.725 2.365 1.83 0 3.629-.63 5.103-1.762l3.348 3.343c.171.171.37.256.598.256.238 0 .46-.092.597-.256a.886.886 0 0 0 .03-1.225l-3.381-3.41zm.09-5.029a6.239 6.239 0 0 1-1.886 4.494c-1.24 1.207-2.828 1.881-4.499 1.881a6.257 6.257 0 0 1-4.5-1.882C3.384 12.335 2.71 10.75 2.71 9.08a6.24 6.24 0 0 1 1.885-4.493c1.25-1.216 2.81-1.882 4.5-1.882 1.707 0 3.317.672 4.499 1.883 1.218 1.247 1.884 2.805 1.884 4.492z"/></svg>