<svg xmlns="http://www.w3.org/2000/svg" width="86.707" height="86.706" viewBox="0 0 86.707 86.706">
  <g id="Group_4" data-name="Group 4" transform="translate(-3694.102 -2461.358)">
    <g id="Group_3" data-name="Group 3">
      <path id="Path_3" data-name="Path 3" d="M3760.41,2476.84a5.083,5.083,0,1,0,5.084,5.083A5.083,5.083,0,0,0,3760.41,2476.84Z" fill="#fff"/>
      <path id="Path_4" data-name="Path 4" d="M3737.812,2483.358a21.353,21.353,0,1,0,21.352,21.353A21.378,21.378,0,0,0,3737.812,2483.358Zm0,35.031a13.678,13.678,0,1,1,13.677-13.678A13.693,13.693,0,0,1,3737.812,2518.389Z" fill="#fff"/>
      <path id="Path_5" data-name="Path 5" d="M3754.763,2548.064h-34.617a26.073,26.073,0,0,1-26.044-26.043V2487.4a26.074,26.074,0,0,1,26.044-26.044h34.617a26.075,26.075,0,0,1,26.046,26.044v34.619A26.075,26.075,0,0,1,3754.763,2548.064Zm-34.617-78.548a17.906,17.906,0,0,0-17.887,17.886v34.619a17.906,17.906,0,0,0,17.887,17.886h34.617a17.906,17.906,0,0,0,17.888-17.886V2487.4a17.906,17.906,0,0,0-17.888-17.886Z" fill="#fff"/>
    </g>
  </g>
</svg>
