<svg xmlns="http://www.w3.org/2000/svg" width="808.833" height="597.505" viewBox="0 0 808.833 597.505">
  <g id="Group_1" data-name="Group 1" transform="translate(-529.211 -235.827)">
    <g id="Union_1" data-name="Union 1" transform="translate(529.211 235.827)" fill="#fff">
      <path d="M 265.7079772949219 596.7984008789062 L 0.7072513103485107 331.7976379394531 L 56.56865310668945 275.9362487792969 L 266.4482421875 485.8158569335938 L 266.8018493652344 486.1693420410156 L 267.1554565429688 485.8158569335938 L 752.26416015625 0.7072465419769287 L 808.1255493164062 56.56864547729492 L 267.8958435058594 596.79833984375 L 267.1554565429688 596.0579223632812 L 266.8018493652344 595.7044677734375 L 266.4482421875 596.0580444335938 L 265.7079772949219 596.7984008789062 Z" stroke="none"/>
      <path d="M 267.8958435058594 596.0913696289062 L 807.4185791015625 56.56864547729492 L 752.26416015625 1.414246559143066 L 267.5089416503906 486.1693420410156 L 266.8018493652344 486.8764343261719 L 266.0947570800781 486.1693420410156 L 56.56865310668945 276.6432495117188 L 1.414251327514648 331.7976379394531 L 265.7079162597656 596.09130859375 L 266.0947570800781 595.7044677734375 L 266.8018493652344 594.9973754882812 L 267.5089416503906 595.7044677734375 L 267.8958435058594 596.0913696289062 M 267.8958435058594 597.5055541992188 L 266.8018493652344 596.4115600585938 L 265.7079467773438 597.5055541992188 L 5.131835860083811e-05 331.7976379394531 L 56.56865310668945 275.2290344238281 L 266.8018493652344 485.4622497558594 L 752.26416015625 4.658203033613972e-05 L 808.832763671875 56.56864547729492 L 267.8958435058594 597.5055541992188 Z" stroke="none" fill="#707070"/>
    </g>
  </g>
</svg>
