<svg xmlns="http://www.w3.org/2000/svg" width="80.653" height="66.384" viewBox="0 0 80.653 66.384">
  <g id="Group_1" data-name="Group 1" transform="translate(-4161.556 -2472.048)">
    <path id="Path_1" data-name="Path 1" d="M4241.878,2480a33.3,33.3,0,0,1-8.157,2.326c1.312-.221,3.238-2.595,4.011-3.556a14.94,14.94,0,0,0,2.707-4.937c.071-.14.123-.317-.018-.424a.465.465,0,0,0-.432.036,41.629,41.629,0,0,1-9.671,3.7.648.648,0,0,1-.667-.177,7.763,7.763,0,0,0-.845-.864,17.09,17.09,0,0,0-4.685-2.87,16.316,16.316,0,0,0-7.185-1.158,17.179,17.179,0,0,0-6.816,1.926,17.549,17.549,0,0,0-5.5,4.491,16.871,16.871,0,0,0-3.284,6.577,17.822,17.822,0,0,0-.174,6.945c.052.387.018.44-.334.387-13.282-1.976-24.291-6.729-33.229-16.913-.388-.442-.6-.442-.917.034-3.911,5.862-2.013,15.28,2.873,19.909.651.617,1.321,1.234,2.042,1.8a16.937,16.937,0,0,1-6.412-1.8c-.388-.245-.583-.1-.617.335a10.164,10.164,0,0,0,.1,1.9,17.039,17.039,0,0,0,10.5,13.583,9.932,9.932,0,0,0,2.13.652,18.992,18.992,0,0,1-6.289.194c-.458-.088-.633.142-.458.582,2.767,7.542,8.741,9.786,13.214,11.065.6.1,1.2.1,1.8.245-.037.054-.073.054-.107.106-1.484,2.262-6.628,3.946-9.024,4.783a32.316,32.316,0,0,1-13.705,1.754c-.737-.108-.892-.1-1.092,0-.2.125-.025.3.211.492.935.617,1.886,1.164,2.855,1.693a45.184,45.184,0,0,0,9.161,3.664c16.464,4.547,35.01,1.206,47.372-11.076,9.708-9.646,13.11-22.947,13.11-36.266,0-.521.616-.809.982-1.084a32.069,32.069,0,0,0,6.447-6.7,2.042,2.042,0,0,0,.427-1.285V2480C4242.209,2479.792,4242.205,2479.856,4241.878,2480Z" fill="#fff"/>
  </g>
</svg>
