<svg xmlns="http://www.w3.org/2000/svg" width="168.923" height="180.368" viewBox="0 0 168.923 180.368">
  <g id="Group_7" data-name="Group 7" transform="translate(-1072.898 -413.368)">
    <path id="Path_7" data-name="Path 7" d="M1186.752,450.859a2.293,2.293,0,0,1-2.009-1.183L1169.859,422.8a2.294,2.294,0,0,1,1.557-3.36l30.131-6.022a2.293,2.293,0,1,1,.9,4.5l-27.056,5.407,13.366,24.137a2.294,2.294,0,0,1-2.005,3.4Z" fill="#232020"/>
    <path id="Path_8" data-name="Path 8" d="M1113.737,593.736a2.293,2.293,0,0,1-.449-4.542l27.056-5.407-13.365-24.136a2.294,2.294,0,1,1,4.013-2.222l14.884,26.881a2.293,2.293,0,0,1-1.556,3.36l-30.131,6.022A2.419,2.419,0,0,1,1113.737,593.736Z" fill="#232020"/>
    <path id="Path_9" data-name="Path 9" d="M1142.815,586.714a2.337,2.337,0,0,1-.406-.035,84.472,84.472,0,0,1,0-166.292,2.293,2.293,0,0,1,.807,4.515,79.888,79.888,0,0,0,0,157.26,2.294,2.294,0,0,1-.4,4.552Z" fill="#232020"/>
    <path id="Path_10" data-name="Path 10" d="M1171.863,586.7a2.293,2.293,0,0,1-.4-4.551,79.889,79.889,0,0,0,0-157.261,2.293,2.293,0,0,1,.806-4.515,84.472,84.472,0,0,1,0,166.292A2.338,2.338,0,0,1,1171.863,586.7Z" fill="#232020"/>
  </g>
</svg>
