<svg xmlns="http://www.w3.org/2000/svg" width="139.112" height="181.964" viewBox="0 0 139.112 181.964">
  <g id="Group_23" data-name="Group 23" transform="translate(-3579.552 -408.367)">
    <g id="Group_13" data-name="Group 13">
      <g id="Group_12" data-name="Group 12">
        <path id="Path_17" data-name="Path 17" d="M3718.663,587.871V410.826a2.46,2.46,0,0,0-2.459-2.459H3582.19a2.46,2.46,0,0,0-2.459,2.459V585.74a1.98,1.98,0,0,0,.031,1.705,2.7,2.7,0,0,0,2.428,1.656,2.461,2.461,0,0,0,2.438-2.127c4.361-5.587,41.8-39.263,66.308-60.894l63.529,63.53a2.459,2.459,0,0,0,4.2-1.739Zm-65.883-66.9a2.458,2.458,0,0,0-3.365-.1c-.175.153-17.672,15.58-34.838,31.089-16.376,14.8-25.223,23.035-29.928,27.82V413.285h129.1v168.65Z" fill="#232020"/>
      </g>
      <path id="Path_18" data-name="Path 18" d="M3647.565,502.979l1.541,1.243,1.543-1.243c1.49-1.2,36.5-29.666,36.5-53.162,0-12.742-7.612-19.015-14.735-20.637-8.767-1.989-17.859,2-23.335,9.884-5.662-8.008-14.826-12.055-23.489-10.01-7.02,1.66-14.522,7.986-14.522,20.763C3611.067,473.313,3646.073,501.778,3647.565,502.979ZM3626.72,433.84a14.222,14.222,0,0,1,3.268-.37c5.851,0,12.822,3.336,16.921,11.52l2.245,4.484,2.17-4.521c4.617-9.62,13.6-12.434,20-10.978,6.83,1.555,10.907,7.477,10.907,15.842,0,18.548-26.4,42.291-33.124,48.038-6.726-5.747-33.121-29.49-33.121-48.038C3615.985,441.4,3620,435.429,3626.72,433.84Z" fill="#232020"/>
    </g>
  </g>
</svg>
