<svg xmlns="http://www.w3.org/2000/svg" width="166.993" height="166.992" viewBox="0 0 166.993 166.992">
  <g id="Group_21" data-name="Group 21" transform="translate(-1826.859 -417.631)">
    <g id="Group_10" data-name="Group 10">
      <g id="Group_9" data-name="Group 9">
        <path id="Path_13" data-name="Path 13" d="M1910.357,584.623a83.5,83.5,0,1,1,83.495-83.5A83.592,83.592,0,0,1,1910.357,584.623Zm0-162.458a78.962,78.962,0,1,0,78.961,78.961A79.051,79.051,0,0,0,1910.357,422.165Z" fill="#232020"/>
      </g>
    </g>
    <g id="Group_11" data-name="Group 11">
      <path id="Path_14" data-name="Path 14" d="M1872.229,485h21.6v3.168h-17.857v12h13.393v3.168h-13.393v12.048h17.857v3.168h-21.6Z" stroke="#272525" stroke-miterlimit="10" stroke-width="1"/>
      <path id="Path_15" data-name="Path 15" d="M1903.044,518.792a17.8,17.8,0,0,1-4.416-1.3v-3.552a23.964,23.964,0,0,0,9.7,1.968q4.32,0,6.36-1.392a4.718,4.718,0,0,0,2.04-4.176,5.194,5.194,0,0,0-.84-3.12,6.542,6.542,0,0,0-2.424-1.944q-1.584-.792-5.472-2.376a19.4,19.4,0,0,1-6.888-4.2,8.121,8.121,0,0,1-2.136-5.784,7.714,7.714,0,0,1,1.368-4.512,8.841,8.841,0,0,1,3.864-3.048,14.393,14.393,0,0,1,5.76-1.08,25.567,25.567,0,0,1,4.776.408,19.406,19.406,0,0,1,4.2,1.32v3.408a20.751,20.751,0,0,0-8.448-1.776,10.036,10.036,0,0,0-5.808,1.392,4.494,4.494,0,0,0-1.967,3.888,5,5,0,0,0,.815,2.88,7.616,7.616,0,0,0,2.568,2.208,37.014,37.014,0,0,0,4.825,2.208,37.246,37.246,0,0,1,5.423,2.52,8.625,8.625,0,0,1,3.048,2.976,8.9,8.9,0,0,1,1.08,4.632,7.84,7.84,0,0,1-3.024,6.6q-3.024,2.328-8.928,2.328A31.059,31.059,0,0,1,1903.044,518.792Z" stroke="#272525" stroke-miterlimit="10" stroke-width="1"/>
      <path id="Path_16" data-name="Path 16" d="M1926.228,485h12.432q5.278,0,8.232,2.5t2.951,7.392q0,4.944-2.927,7.392t-8.256,2.448h-8.689v13.824h-3.743Zm12.144,16.56a9.632,9.632,0,0,0,5.664-1.464q2.064-1.464,2.064-5.208,0-3.791-2.064-5.256a9.647,9.647,0,0,0-5.664-1.464h-8.4V501.56Z" stroke="#272525" stroke-miterlimit="10" stroke-width="1"/>
    </g>
  </g>
</svg>
